# Blender v2.71 (sub 0) OBJ File: ''
# www.blender.org
mtllib testgun.mtl
o Cube
v 1.000000 -1.000000 -1.000000
v 1.000000 -1.000000 1.000000
v -1.000000 -1.000000 1.000000
v -1.000000 -1.000000 -1.000000
v 1.000000 1.000000 -0.999999
v 0.999999 1.000000 1.000001
v -1.000000 1.000000 1.000000
v -1.000000 1.000000 -1.000000
v -3.320066 -0.521853 0.521852
v -3.320066 -0.521853 -0.521853
v -3.320067 0.521852 0.521852
v -3.320066 0.521852 -0.521853
v 2.177904 -0.785819 -0.785818
v 2.177904 -0.785819 0.785819
v 2.177904 0.785819 -0.785818
v 2.177903 0.785819 0.785820
v 2.637886 -0.671998 -0.671997
v 2.637886 -0.671998 0.671999
v 2.637887 0.671998 -0.671997
v 2.637886 0.671998 0.671999
v 0.896787 -1.014331 -0.410925
v 0.896787 -1.014331 0.410924
v -0.058107 -1.014331 0.410924
v -0.058106 -1.014331 -0.410925
v 1.552037 -2.378629 -0.410925
v 1.552037 -2.378629 0.410924
v 0.597143 -2.378629 0.410924
v 0.597143 -2.378629 -0.410925
v -3.320066 -0.156556 0.156555
v -3.320066 -0.156556 -0.156557
v -3.320066 0.156555 0.156555
v -3.320066 0.156555 -0.156556
v -3.086933 -0.156556 0.156555
v -3.086933 -0.156556 -0.156557
v -3.086933 0.156555 0.156555
v -3.086933 0.156555 -0.156556
v -3.320066 -0.678705 0.678704
v -3.320066 -0.678705 -0.678706
v -3.320067 0.678704 0.678704
v -3.320066 0.678704 -0.678705
v -3.320066 -0.203612 0.203611
v -3.320066 -0.203612 -0.203612
v -3.320066 0.203611 0.203611
v -3.320066 0.203611 -0.203612
v -3.519409 -0.678705 0.678704
v -3.519408 -0.678705 -0.678706
v -3.519409 0.678704 0.678704
v -3.519409 0.678704 -0.678705
v -3.519409 -0.203612 0.203611
v -3.519409 -0.203612 -0.203612
v -3.519409 0.203611 0.203611
v -3.519409 0.203611 -0.203612
v -1.914680 0.811492 0.211505
v -1.914680 0.811492 -0.211506
v -2.405387 0.710361 0.110374
v -2.405387 0.710361 -0.110375
v -1.975448 1.106352 0.211505
v -1.975448 1.106352 -0.211506
vn -0.015200 -0.999900 0.000000
vn 0.000000 1.000000 0.000000
vn 0.178900 0.983900 0.000000
vn -0.000000 -0.000000 1.000000
vn -0.201900 0.979400 0.000000
vn 0.000000 0.000000 -1.000000
vn -1.000000 0.000000 0.000000
vn -0.201800 0.000000 -0.979400
vn -0.201900 0.000000 0.979400
vn -0.201800 -0.979400 -0.000000
vn 0.240200 0.970700 0.000000
vn 0.178900 -0.000000 0.983900
vn 0.178900 0.000000 -0.983900
vn 0.178900 -0.983900 0.000000
vn 1.000000 0.000000 0.000000
vn 0.240200 -0.000000 0.970700
vn 0.240200 0.000000 -0.970700
vn 0.240200 -0.970700 0.000000
vn -0.901400 -0.432900 -0.000000
vn 0.000000 -0.999700 0.024300
vn 0.000000 -0.999700 -0.024300
vn 0.137500 -0.990500 0.000000
vn 0.000000 -1.000000 -0.000000
vn 0.901400 0.432900 0.000000
vn -0.677500 0.735500 -0.000000
vn -0.193800 -0.039900 -0.980200
vn 0.979400 0.201900 0.000000
vn -0.193800 -0.039900 0.980200
usemtl Material
s off
f 3//1 4//1 24//1
f 8//2 7//2 6//2
f 6//3 16//3 15//3
f 2//4 6//4 7//4
f 8//5 12//5 56//5
f 1//6 4//6 8//6
f 29//7 30//7 42//7
f 8//8 4//8 10//8
f 3//9 7//9 11//9
f 3//10 9//10 10//10
f 16//11 20//11 19//11
f 6//12 2//12 14//12
f 1//13 5//13 15//13
f 1//14 13//14 14//14
f 17//15 19//15 20//15
f 14//16 18//16 20//16
f 13//17 15//17 19//17
f 13//18 17//18 18//18
f 24//19 28//19 27//19
f 3//20 23//20 22//20
f 4//21 1//21 21//21
f 2//22 22//22 21//22
f 26//23 27//23 28//23
f 23//4 27//4 26//4
f 24//6 21//6 25//6
f 22//24 26//24 25//24
f 32//23 36//23 35//23
f 31//7 29//7 41//7
f 32//7 44//7 42//7
f 31//7 43//7 44//7
f 35//7 36//7 34//7
f 30//4 34//4 36//4
f 31//6 35//6 33//6
f 29//2 33//2 34//2
f 41//2 42//2 50//2
f 43//6 41//6 49//6
f 44//4 52//4 50//4
f 43//23 51//23 52//23
f 12//15 40//15 39//15
f 10//15 38//15 40//15
f 11//15 39//15 37//15
f 9//15 37//15 38//15
f 48//7 52//7 51//7
f 46//7 50//7 52//7
f 45//7 47//7 51//7
f 45//7 49//7 50//7
f 40//2 48//2 47//2
f 38//6 46//6 48//6
f 39//4 47//4 45//4
f 38//23 37//23 45//23
f 7//5 53//5 55//5
f 11//5 55//5 56//5
f 8//5 54//5 53//5
f 58//25 56//25 55//25
f 54//26 56//26 58//26
f 54//27 58//27 57//27
f 55//28 53//28 57//28
f 23//1 3//1 24//1
f 5//2 8//2 6//2
f 5//3 6//3 15//3
f 3//4 2//4 7//4
f 54//5 8//5 56//5
f 5//6 1//6 8//6
f 41//7 29//7 42//7
f 12//8 8//8 10//8
f 9//9 3//9 11//9
f 4//10 3//10 10//10
f 15//11 16//11 19//11
f 16//12 6//12 14//12
f 13//13 1//13 15//13
f 2//14 1//14 14//14
f 18//15 17//15 20//15
f 16//16 14//16 20//16
f 17//17 13//17 19//17
f 14//18 13//18 18//18
f 23//19 24//19 27//19
f 2//20 3//20 22//20
f 24//21 4//21 21//21
f 1//22 2//22 21//22
f 25//23 26//23 28//23
f 22//4 23//4 26//4
f 28//6 24//6 25//6
f 21//24 22//24 25//24
f 31//23 32//23 35//23
f 43//7 31//7 41//7
f 30//7 32//7 42//7
f 32//7 31//7 44//7
f 33//7 35//7 34//7
f 32//4 30//4 36//4
f 29//6 31//6 33//6
f 30//2 29//2 34//2
f 49//2 41//2 50//2
f 51//6 43//6 49//6
f 42//4 44//4 50//4
f 44//23 43//23 52//23
f 11//15 12//15 39//15
f 12//15 10//15 40//15
f 9//15 11//15 37//15
f 10//15 9//15 38//15
f 47//7 48//7 51//7
f 48//7 46//7 52//7
f 49//7 45//7 51//7
f 46//7 45//7 50//7
f 39//2 40//2 47//2
f 40//6 38//6 48//6
f 37//4 39//4 45//4
f 46//23 38//23 45//23
f 11//5 7//5 55//5
f 12//5 11//5 56//5
f 7//5 8//5 53//5
f 57//25 58//25 55//25
f 53//27 54//27 57//27
