# Blender v2.69 (sub 0) OBJ File: ''
# www.blender.org
mtllib demotablet.mtl
o Cube
v 1.000000 -0.110595 -1.000000
v 1.000000 -0.110595 1.000000
v -1.000000 -0.110595 1.000000
v -1.000000 -0.110595 -1.000000
v 1.000000 0.110595 -0.999999
v 0.999999 0.110595 1.000001
v -1.000000 0.110595 1.000000
v -1.000000 0.110595 -1.000000
vt 0.734369 0.108727
vt 0.812689 0.108727
vt 0.734369 0.187047
vt 0.084903 0.875953
vt 0.084903 0.127052
vt 0.833804 0.875953
vt 0.826907 0.485452
vt 0.841489 0.485452
vt 0.826907 0.581646
vt 0.840275 0.460060
vt 0.857285 0.460060
vt 0.840275 0.607038
vt 0.812325 0.485452
vt 0.826907 0.389257
vt 0.841489 0.389257
vt 0.812689 0.187047
vt 0.833805 0.127052
vt 0.841489 0.581646
vt 0.857285 0.607038
vt 0.812325 0.389257
vn 0.000000 -1.000000 0.000000
vn 0.000000 1.000000 0.000000
vn 1.000000 -0.000002 0.000000
vn 0.000000 -0.000003 1.000000
vn -1.000000 -0.000001 -0.000000
vn 0.000000 0.000002 -1.000000
vn 1.000000 0.000004 0.000001
vn -0.000001 0.000001 1.000000
usemtl TabletMat
s off
f 1/1/1 2/2/1 4/3/1
f 5/4/2 8/5/2 6/6/2
f 1/7/3 5/8/3 2/9/3
f 2/10/4 6/11/4 3/12/4
f 3/7/5 7/13/5 4/14/5
f 5/8/6 1/7/6 8/15/6
f 2/2/1 3/16/1 4/3/1
f 8/5/2 7/17/2 6/6/2
f 5/8/7 6/18/7 2/9/7
f 6/11/8 7/19/8 3/12/8
f 7/13/5 8/20/5 4/14/5
f 1/7/6 4/14/6 8/15/6
